<?xml version="1.0" encoding="utf-8"?>
<!-- Generator: Adobe Illustrator 16.0.3, SVG Export Plug-In . SVG Version: 6.00 Build 0)  -->
<!DOCTYPE svg PUBLIC "-//W3C//DTD SVG 1.1//EN" "http://www.w3.org/Graphics/SVG/1.1/DTD/svg11.dtd">
<svg version="1.1" id="Layer_1" xmlns="http://www.w3.org/2000/svg" xmlns:xlink="http://www.w3.org/1999/xlink" x="0px" y="0px"
	 width="300px" height="300.001px" viewBox="0 0 300 300.001" style="enable-background:new 0 0 300 300.001;" xml:space="preserve"
	>
<style type="text/css">
<![CDATA[
	.st0{fill:#4D4D4D;}
	.st1{opacity:0.1;}
]]>
</style>
<rect class="st0" width="300" height="300"/>
<g class="st1">
	<path d="M149.518,84.058c-36.394,0-66.006,29.609-66.006,66.008c0,36.379,29.612,65.988,66.006,65.988
		c36.382,0,65.972-29.609,65.972-65.988C215.489,113.667,185.899,84.058,149.518,84.058z M149.428,187.055
		c-20.389,0-36.986-16.592-36.986-36.986s16.598-36.987,36.986-36.987c20.395,0,36.988,16.592,36.988,36.987
		S169.822,187.055,149.428,187.055z"/>
	<path d="M149.428,121.783c-15.591,0-28.28,12.688-28.28,28.286c0,15.596,12.689,28.283,28.28,28.283
		c15.6,0,28.287-12.688,28.287-28.283C177.715,134.471,165.027,121.783,149.428,121.783z"/>
	<path d="M150,0L0,150l150,150l150-150L150,0z M149.518,234.904c-46.808,0-84.88-38.064-84.88-84.838
		c0-46.794,38.072-84.858,84.88-84.858c46.78,0,84.839,38.063,84.839,84.858C234.356,196.84,196.298,234.904,149.518,234.904z"/>
</g>
<g>
</g>
<g>
</g>
<g>
</g>
<g>
</g>
<g>
</g>
<g>
</g>
<g>
</g>
<g>
</g>
<g>
</g>
<g>
</g>
<g>
</g>
<g>
</g>
<g>
</g>
<g>
</g>
<g>
</g>
</svg>
