<?xml version="1.0" encoding="utf-8"?>
<!-- Generator: Adobe Illustrator 16.0.3, SVG Export Plug-In . SVG Version: 6.00 Build 0)  -->
<!DOCTYPE svg PUBLIC "-//W3C//DTD SVG 1.1//EN" "http://www.w3.org/Graphics/SVG/1.1/DTD/svg11.dtd">
<svg version="1.1" id="Layer_1" xmlns="http://www.w3.org/2000/svg" xmlns:xlink="http://www.w3.org/1999/xlink" x="0px" y="0px"
	 width="150px" height="150px" viewBox="0 0 150 150" style="enable-background:new 0 0 150 150;" xml:space="preserve">
<style type="text/css">
<![CDATA[
	.st0{fill:#FFFFFF;}
]]>
</style>
<path class="st0" d="M75,0L0,75l75,75l75-75L75,0z M95.71,90.082l5.792-5.791c0.723-0.765,1.406-0.965,2.372-0.563
	c0.925,0.403,1.126,1.327,1.126,2.374v18.016c0,1.408-0.28,2.883-1.688,2.883H85.294c-1.046,0-1.971-0.797-2.372-1.764
	c-0.402-0.924-0.201-2.128,0.563-2.852l5.791-5.83L74.998,82.258L60.722,96.526l5.791,5.786c0.765,0.725,0.966,2.001,0.563,2.926
	c-0.403,0.966-1.328,1.762-2.374,1.762H46.687c-1.408,0-3.687-1.475-3.687-2.883V86.102c0-1.047,1.198-1.971,2.165-2.374
	c0.924-0.401,2.329-0.201,3.052,0.563l5.932,5.791l14.346-14.276L54.252,61.527l-5.776,5.792c-0.48,0.481-1.118,0.764-1.799,0.764
	c-0.323,0-1.235-0.08-1.516-0.2C44.195,67.48,43,66.555,43,65.51V47.491C43,46.084,45.278,45,46.687,45h18.016
	c1.046,0,1.971,0.602,2.374,1.566c0.402,0.926,0.201,2.031-0.563,2.755l-5.791,5.781l14.276,14.272l14.278-14.279l-5.791-5.793
	c-0.765-0.723-0.966-1.81-0.563-2.734C83.323,45.603,84.248,45,85.294,45h18.018c1.408,0,1.688,1.084,1.688,2.491V65.51
	c0,1.045-0.202,1.971-1.126,2.373c-0.322,0.12-0.461,0.2-0.783,0.2c-0.684,0-1.217-0.282-1.699-0.764l-5.736-5.792l-14.25,14.278
	L95.71,90.082z"/>
<g>
</g>
<g>
</g>
<g>
</g>
<g>
</g>
<g>
</g>
<g>
</g>
<g>
</g>
<g>
</g>
<g>
</g>
<g>
</g>
<g>
</g>
<g>
</g>
<g>
</g>
<g>
</g>
<g>
</g>
</svg>
