<?xml version="1.0" encoding="utf-8"?>
<!-- Generator: Adobe Illustrator 16.0.3, SVG Export Plug-In . SVG Version: 6.00 Build 0)  -->
<!DOCTYPE svg PUBLIC "-//W3C//DTD SVG 1.1//EN" "http://www.w3.org/Graphics/SVG/1.1/DTD/svg11.dtd">
<svg version="1.1" id="Layer_1" xmlns="http://www.w3.org/2000/svg" xmlns:xlink="http://www.w3.org/1999/xlink" x="0px" y="0px"
	 width="300px" height="300.001px" viewBox="0 0 300 300.001" style="enable-background:new 0 0 300 300.001;" xml:space="preserve"
	>
<style type="text/css">
<![CDATA[
	.st0{fill:#4D4D4D;}
	.st1{opacity:0.1;}
]]>
</style>
<rect class="st0" width="300" height="300"/>
<g class="st1">
	<path d="M300,172.071c0,2.929-2.347,6.444-5.47,7.031l-36.133,5.469c-2.146,6.25-4.491,12.108-7.614,17.771
		c6.636,9.571,13.667,18.167,20.897,26.954c1.169,1.367,1.952,3.126,1.952,4.883c0,1.759-0.585,3.126-1.758,4.493
		c-4.689,6.25-31.057,34.96-37.694,34.96c-1.762,0-3.518-0.781-5.079-1.759l-26.952-21.093c-5.668,2.929-11.721,5.469-17.773,7.423
		c-1.367,11.913-2.541,24.607-5.664,36.327c-0.783,3.126-3.518,5.469-7.03,5.469h-43.363c-3.514,0-6.638-2.54-7.031-5.858
		l-5.469-35.938c-6.053-1.954-11.911-4.297-17.574-7.229l-27.541,20.898c-1.367,1.173-3.123,1.759-4.885,1.759
		c-1.756,0-3.514-0.781-4.881-2.148C50.584,262.108,36.916,250,28.713,238.673c-0.979-1.367-1.367-2.932-1.367-4.493
		c0-1.757,0.583-3.124,1.561-4.491c6.643-8.984,13.867-17.58,20.51-26.759c-3.323-6.25-6.057-12.694-8.01-19.337l-35.742-5.271
		C2.345,177.735,0,174.608,0,171.29v-43.36c0-2.93,2.345-6.444,5.273-7.031l36.328-5.469c1.951-6.25,4.491-12.108,7.615-17.969
		c-6.638-9.374-13.668-18.164-20.898-26.951c-1.168-1.367-1.951-2.932-1.951-4.688c0-1.759,0.783-3.126,1.756-4.493
		c4.691-6.444,31.059-34.96,37.695-34.96c1.762,0,3.518,0.78,5.08,1.953L97.85,49.22c5.668-2.929,11.721-5.469,17.774-7.423
		c1.367-11.913,2.54-24.608,5.663-36.327c0.783-3.126,3.518-5.469,7.031-5.469h43.363c3.513,0,6.636,2.54,7.03,5.858l5.47,35.938
		c6.053,1.954,11.911,4.297,17.575,7.229l27.733-20.898c1.173-1.173,2.929-1.759,4.69-1.759c1.757,0,3.514,0.78,4.88,1.953
		c10.355,9.571,24.022,21.68,32.226,33.203c0.979,1.171,1.369,2.735,1.369,4.297c0,1.757-0.585,3.124-1.563,4.491
		c-6.642,8.984-13.867,17.58-20.509,26.759c3.323,6.25,6.059,12.694,8.009,19.14l35.744,5.469c3.317,0.586,5.664,3.713,5.664,7.03
		V172.071z M150,100c-27.539,0-50,22.461-50,50c0,27.54,22.461,50,50,50c27.54,0,49.999-22.46,49.999-50
		C199.999,122.461,177.54,100,150,100z"/>
</g>
<g>
</g>
<g>
</g>
<g>
</g>
<g>
</g>
<g>
</g>
<g>
</g>
<g>
</g>
<g>
</g>
<g>
</g>
<g>
</g>
<g>
</g>
<g>
</g>
<g>
</g>
<g>
</g>
<g>
</g>
</svg>
