<?xml version="1.0" encoding="UTF-8" standalone="no"?>
<!-- Generator: Adobe Illustrator 16.0.3, SVG Export Plug-In . SVG Version: 6.00 Build 0)  -->

<svg
   xmlns:dc="http://purl.org/dc/elements/1.1/"
   xmlns:cc="http://creativecommons.org/ns#"
   xmlns:rdf="http://www.w3.org/1999/02/22-rdf-syntax-ns#"
   xmlns:svg="http://www.w3.org/2000/svg"
   xmlns="http://www.w3.org/2000/svg"
   xmlns:sodipodi="http://sodipodi.sourceforge.net/DTD/sodipodi-0.dtd"
   xmlns:inkscape="http://www.inkscape.org/namespaces/inkscape"
   version="1.1"
   id="Layer_1"
   x="0px"
   y="0px"
   width="300px"
   height="300.001px"
   viewBox="0 0 300 300.001"
   style="enable-background:new 0 0 300 300.001;"
   xml:space="preserve"
   inkscape:version="0.91 r13725"
   sodipodi:docname="services.svg"><metadata
     id="metadata47"><rdf:RDF><cc:Work
         rdf:about=""><dc:format>image/svg+xml</dc:format><dc:type
           rdf:resource="http://purl.org/dc/dcmitype/StillImage" /></cc:Work></rdf:RDF></metadata><defs
     id="defs45" /><sodipodi:namedview
     pagecolor="#ffffff"
     bordercolor="#666666"
     borderopacity="1"
     objecttolerance="10"
     gridtolerance="10"
     guidetolerance="10"
     inkscape:pageopacity="0"
     inkscape:pageshadow="2"
     inkscape:window-width="707"
     inkscape:window-height="535"
     id="namedview43"
     showgrid="false"
     inkscape:zoom="1.1125109"
     inkscape:cx="118.41789"
     inkscape:cy="166.8104"
     inkscape:window-x="784"
     inkscape:window-y="717"
     inkscape:window-maximized="0"
     inkscape:current-layer="Layer_1" /><style
     type="text/css"
     id="style3"><![CDATA[
		.st0{fill:#4D4D4D;}
		.st1{opacity:0.1;}
	]]></style><rect
     class="st0"
     width="303.81357"
     height="301.27118"
     id="rect5"
     x="0"
     y="0"
     style="fill:#4d4d4d" /><g
     id="g7"
     transform="scale(2.4166153,2.4094243)"><path
       class="st1"
       d="M 62.5,125 C 28.037,125 0,96.963 0,62.5 0,28.038 28.037,0 62.5,0 96.963,0 125,28.038 125,62.5 125,96.963 96.963,125 62.5,125 Z M 62.5,5.953 C 31.32,5.953 5.952,31.32 5.952,62.5 c 0,31.181 25.368,56.549 56.548,56.549 31.18,0 56.548,-25.368 56.548,-56.549 C 119.048,31.32 93.68,5.953 62.5,5.953 Z M 62.4,115.604 31.111,105.543 11.629,79.182 l 0,-32.617 19.434,-26.361 31.195,-10.062 31.188,10.063 19.375,26.363 0,32.607 -19.346,26.362 -31.075,10.067 z m -27.642,-15.141 27.637,8.886 27.418,-8.882 17.055,-23.24 0,-28.707 -17.079,-23.24 -27.53,-8.883 -27.543,8.885 -17.135,23.24 0,28.698 17.177,23.243 z"
       id="path9"
       inkscape:connector-curvature="0"
       style="opacity:0.1" /><path
       class="st1"
       d="m 62.5,90.278 c -15.315,0 -27.778,-12.461 -27.778,-27.778 0,-15.316 12.463,-27.777 27.778,-27.777 15.315,0 27.778,12.461 27.778,27.777 0,15.317 -12.463,27.778 -27.778,27.778 z m 0,-49.603 c -12.034,0 -21.824,9.792 -21.824,21.825 0,12.035 9.79,21.826 21.824,21.826 12.034,0 21.824,-9.791 21.824,-21.826 0,-12.033 -9.79,-21.825 -21.824,-21.825 z"
       id="path11"
       inkscape:connector-curvature="0"
       style="opacity:0.1" /></g><g
     id="g13" /><g
     id="g15" /><g
     id="g17" /><g
     id="g19" /><g
     id="g21" /><g
     id="g23" /><g
     id="g25" /><g
     id="g27" /><g
     id="g29" /><g
     id="g31" /><g
     id="g33" /><g
     id="g35" /><g
     id="g37" /><g
     id="g39" /><g
     id="g41" /></svg>